# xmcd CD database file
#
# Track frame offsets:
#	150
#	20287
#	48862
#	70302
#	85564
#	119933
#	142041
#	179530
#	203533
#	230991
#	261793
#	283344
#
# Disc length: 4236 seconds
#
# Revision: 0
# Processed by: cddbd v1.5.2PL0 Copyright (c) Steve Scherf et al.
# Submitted via: CDex 1.70beta2
#
DISCID=b6108a0c
DTITLE=Markus Stollenwerk - Moments
DYEAR=2010
DGENRE=Jazz
TTITLE0=Moment No1
TTITLE1=Moment No2
TTITLE2=Moment No3
TTITLE3=Moment No4
TTITLE4=Moment No5
TTITLE5=Moment No6
TTITLE6=Moment No7
TTITLE7=Moment No8
TTITLE8=Moment No9
TTITLE9=Moment No10
TTITLE10=Moment No11
TTITLE11=Moment No12
EXTD=YEAR: 2010
EXTT0=
EXTT1=
EXTT2=
EXTT3=
EXTT4=
EXTT5=
EXTT6=
EXTT7=
EXTT8=
EXTT9=
EXTT10=
EXTT11=
PLAYORDER=
